<svg width="50" height="50" viewBox="0 0 50 50" fill="none" xmlns="http://www.w3.org/2000/svg">
<path d="M30.0009 35V36.25C30.0009 37.5761 29.4741 38.8479 28.5364 39.7855C27.5987 40.7232 26.327 41.25 25.0009 41.25C23.6748 41.25 22.403 40.7232 21.4653 39.7855C20.5277 38.8479 20.0009 37.5761 20.0009 36.25V35M38.4134 32.4555C36.4071 30 34.9907 28.75 34.9907 21.9805C34.9907 15.7813 31.8251 13.5727 29.2196 12.5C28.8735 12.3578 28.5477 12.0312 28.4423 11.6758C27.9852 10.1203 26.704 8.75 25.0009 8.75C23.2977 8.75 22.0157 10.1211 21.5634 11.6773C21.4579 12.0367 21.1321 12.3578 20.786 12.5C18.1774 13.5742 15.0149 15.775 15.0149 21.9805C15.011 28.75 13.5946 30 11.5884 32.4555C10.7571 33.4727 11.4852 35 12.9392 35H37.0704C38.5165 35 39.2399 33.468 38.4134 32.4555Z" stroke="url(#paint0_linear)" stroke-width="2" stroke-linecap="round" stroke-linejoin="round"/>
<defs>
<linearGradient id="paint0_linear" x1="24.9999" y1="8.75" x2="24.9999" y2="41.25" gradientUnits="userSpaceOnUse">
<stop stop-color="#229FC0"/>
<stop offset="1" stop-color="#0A6A85"/>
</linearGradient>
</defs>
</svg>
